<?xml version="1.0" encoding="UTF-8" standalone="no"?>
<!DOCTYPE svg PUBLIC "-//W3C//DTD SVG 1.1//EN" "http://www.w3.org/Graphics/SVG/1.1/DTD/svg11.dtd">
<svg width="100px" height="100px" version="1.1" xmlns="http://www.w3.org/2000/svg" xmlns:xlink="http://www.w3.org/1999/xlink" xml:space="preserve" xmlns:serif="http://www.serif.com/" style="fill-rule:evenodd;clip-rule:evenodd;stroke-linejoin:round;stroke-miterlimit:2;">
    <g>
        <path d="M93.629613342,27.090396414c5.710429341,-5.718415955 5.710429341,-15.010841882 0,-20.717277916c-5.710429341,-5.718415955 -15.01483519,-5.718415955 -20.721271223,0l-43.674801188,43.666814574c-6.025900612,-0.3314445 -12.159620519,1.800981561 -16.755917142,6.393284877c-5.993954154,5.997947461 -9.380278686,22.925576815 -10.330685807,31.031990494c-0.335437807,2.847228056 0.630942543,5.638549811 2.651556002,7.65916327c1.753061875,1.757055182 4.093139912,2.719442224 6.549023859,2.719442224c0.371377573,0 0.742755145,-0.023959843 1.11013941,-0.067886223c0.962387043,-0.111812602 23.712258339,-2.867194592 31.103870024,-10.258806277c4.592303316,-4.592303316 6.72073607,-10.726023223 6.38929157,-16.751923835l43.678794496,-43.674801188Zm-64.372112568,22.949536658c-0,0 0.003993307,-0.003993307 -0,0Zm8.65349677,31.826658633c-3.410284376,3.410284376 -16.352593112,6.7926156 -26.391767491,7.974634541c-0.539096476,0.083859452 -0.910474049,-0.199665362 -1.078192952,-0.367384265c-0.163725596,-0.163725596 -0.431277181,-0.523123247 -0.367384265,-1.08218626c1.174032326,-9.991254693 4.68814269,-22.949536658 8.050507378,-26.315894654c2.731422146,-2.727428839 6.309425425,-4.089146605 9.895415319,-4.089146605c3.585989894,0 7.163993173,1.365711073 9.895415319,4.089146605c5.454857678,5.454857678 5.454857678,14.331979653 0,19.786837331l-0.003993307,0.003993307Zm5.646536425,-25.433373756c-1.641249272,-1.641249272 -3.482163906,-2.97102058 -5.442877756,-3.98132731l40.436229024,-40.436229024c2.5956497,-2.5956497 6.832548673,-2.5956497 9.428198373,0c2.5956497,2.5956497 2.5956497,6.824562058 0,9.424205066l-40.440222331,40.436229024c-1.014300037,-1.960713851 -2.340078038,-3.801628484 -3.98132731,-5.442877756Z" style="fill-rule:nonzero;"/>
        <path d="M93.629613342,27.090396414c5.710429341,-5.718415955 5.710429341,-15.010841882 0,-20.717277916c-5.710429341,-5.718415955 -15.01483519,-5.718415955 -20.721271223,0l-43.674801188,43.666814574c-6.025900612,-0.3314445 -12.159620519,1.800981561 -16.755917142,6.393284877c-5.993954154,5.997947461 -9.380278686,22.925576815 -10.330685807,31.031990494c-0.335437807,2.847228056 0.630942543,5.638549811 2.651556002,7.65916327c1.753061875,1.757055182 4.093139912,2.719442224 6.549023859,2.719442224c0.371377573,0 0.742755145,-0.023959843 1.11013941,-0.067886223c0.962387043,-0.111812602 23.712258339,-2.867194592 31.103870024,-10.258806277c4.592303316,-4.592303316 6.72073607,-10.726023223 6.38929157,-16.751923835l43.678794496,-43.674801188Zm-64.372112568,22.949536658c-0,0 0.003993307,-0.003993307 -0,0Zm8.65349677,31.826658633c-3.410284376,3.410284376 -16.352593112,6.7926156 -26.391767491,7.974634541c-0.539096476,0.083859452 -0.910474049,-0.199665362 -1.078192952,-0.367384265c-0.163725596,-0.163725596 -0.431277181,-0.523123247 -0.367384265,-1.08218626c1.174032326,-9.991254693 4.68814269,-22.949536658 8.050507378,-26.315894654c2.731422146,-2.727428839 6.309425425,-4.089146605 9.895415319,-4.089146605c3.585989894,0 7.163993173,1.365711073 9.895415319,4.089146605c5.454857678,5.454857678 5.454857678,14.331979653 0,19.786837331l-0.003993307,0.003993307Zm5.646536425,-25.433373756c-1.641249272,-1.641249272 -3.482163906,-2.97102058 -5.442877756,-3.98132731l40.436229024,-40.436229024c2.5956497,-2.5956497 6.832548673,-2.5956497 9.428198373,0c2.5956497,2.5956497 2.5956497,6.824562058 0,9.424205066l-40.440222331,40.436229024c-1.014300037,-1.960713851 -2.340078038,-3.801628484 -3.98132731,-5.442877756Z" style="fill-rule:nonzero;"/>
        <path d="M20.935448504,41.649994579c0.77869491,0.77869491 1.800981561,1.170039019 2.823268213,1.170039019c1.022286651,0 2.044573302,-0.391344109 2.823268213,-1.170039019c1.561383127,-1.561383127 1.561383127,-4.085153298 0,-5.646536425l-14.559598165,-14.559598165c-2.599643008,-2.599643008 -2.599643008,-6.828555365 0,-9.428198373c2.599643008,-2.5956497 6.832548673,-2.5956497 9.424205066,0l14.559598165,14.563591472c1.561383127,1.561383127 4.085153298,1.561383127 5.646536425,0c1.561383127,-1.561383127 1.561383127,-4.085153298 0,-5.646536425l-14.559598165,-14.563591472c-5.718415955,-5.710429341 -15.010841882,-5.710429341 -20.721271223,-0.003993307c-5.710429341,5.706436033 -5.714422648,15.010841882 -0,20.721271223l14.563591472,14.563591472Z" style="fill-rule:nonzero;"/>
        <path d="M20.935448504,41.649994579c0.77869491,0.77869491 1.800981561,1.170039019 2.823268213,1.170039019c1.022286651,0 2.044573302,-0.391344109 2.823268213,-1.170039019c1.561383127,-1.561383127 1.561383127,-4.085153298 0,-5.646536425l-14.559598165,-14.559598165c-2.599643008,-2.599643008 -2.599643008,-6.828555365 0,-9.428198373c2.599643008,-2.5956497 6.832548673,-2.5956497 9.424205066,0l14.559598165,14.563591472c1.561383127,1.561383127 4.085153298,1.561383127 5.646536425,0c1.561383127,-1.561383127 1.561383127,-4.085153298 0,-5.646536425l-14.559598165,-14.563591472c-5.718415955,-5.710429341 -15.010841882,-5.710429341 -20.721271223,-0.003993307c-5.710429341,5.706436033 -5.714422648,15.010841882 -0,20.721271223l14.563591472,14.563591472Z" style="fill-rule:nonzero;"/>
        <path d="M90.898191196,70.17818144l-11.800222868,-11.804216176c-1.561383127,-1.561383127 -4.085153298,-1.561383127 -5.646536425,0c-1.561383127,1.561383127 -1.561383127,4.085153298 0,5.646536425l11.800222868,11.804216176c2.975013887,2.97102058 4.680156075,7.084127028 4.680156075,11.29307285l0,2.811288291l-2.807294984,0c-4.26884543,0 -8.282119198,-1.661215808 -11.297066157,-4.680156075l-11.804216176,-11.800222868c-1.561383127,-1.561383127 -4.085153298,-1.561383127 -5.646536425,0c-1.561383127,1.561383127 -1.561383127,4.085153298 0,5.646536425l11.804216176,11.800222868c4.520423786,4.5284104 10.542331091,7.020234113 16.943602582,7.020234113l6.800602215,0c2.208298899,0 3.993307231,-1.785008332 3.993307231,-3.993307231l0,-6.804595522c0,-6.309425425 -2.559709935,-12.487071712 -7.020234113,-16.939609275Z" style="fill-rule:nonzero;"/>
        <path d="M90.898191196,70.17818144l-11.800222868,-11.804216176c-1.561383127,-1.561383127 -4.085153298,-1.561383127 -5.646536425,0c-1.561383127,1.561383127 -1.561383127,4.085153298 0,5.646536425l11.800222868,11.804216176c2.975013887,2.97102058 4.680156075,7.084127028 4.680156075,11.29307285l0,2.811288291l-2.807294984,0c-4.26884543,0 -8.282119198,-1.661215808 -11.297066157,-4.680156075l-11.804216176,-11.800222868c-1.561383127,-1.561383127 -4.085153298,-1.561383127 -5.646536425,0c-1.561383127,1.561383127 -1.561383127,4.085153298 0,5.646536425l11.804216176,11.800222868c4.520423786,4.5284104 10.542331091,7.020234113 16.943602582,7.020234113l6.800602215,0c2.208298899,0 3.993307231,-1.785008332 3.993307231,-3.993307231l0,-6.804595522c0,-6.309425425 -2.559709935,-12.487071712 -7.020234113,-16.939609275Z" style="fill-rule:nonzero;"/>
    </g>
</svg>
